<svg width="154" height="57" viewBox="0 0 154 57" fill="none" xmlns="http://www.w3.org/2000/svg">
<g clip-path="url(#clip0_616_889)">
<path d="M48.2936 28.6616C47.6717 30.6228 47.0346 36.9309 45.784 37.8851C44.1495 39.1332 42.4792 36.7902 42.8259 34.264C45.0058 25.3393 46.2581 14.5287 48.8033 5.93543C50.1949 1.23702 52.5702 -0.899987 56.0908 0.368157C58.5375 1.24958 59.4788 3.67537 60.3369 6.89972C62.6154 15.4779 63.9033 25.1334 66.0697 33.8346C66.333 36.2855 65.3543 38.6661 63.5159 38.1111C61.5008 37.5009 61.5534 31.5921 60.7481 29.3973C60.2077 27.9258 59.4686 28.6264 58.7278 28.639C55.2514 28.7043 51.77 28.536 48.2953 28.6616H48.2936ZM49.6291 22.5996H58.8892C59.1849 22.5996 59.1407 21.6353 59.1084 21.2812C58.8909 18.9735 57.3125 11.5956 56.6787 9.29287C55.6218 5.4558 53.1921 5.60396 52.1455 9.36821C51.3673 12.1707 50.1116 18.3582 49.7072 21.334C49.6495 21.7584 49.5934 22.1652 49.6291 22.5996Z" fill="#0F4D8E"/>
<path d="M117.724 0.0719421C120.997 -0.435315 123.189 1.75694 124.42 6.10881C126.838 14.6543 128.024 24.8623 130.296 33.5861C130.846 38.0685 127.627 40.3964 126.255 35.5398C125.88 34.2089 125.177 29.1639 124.612 28.6767C123.851 28.0163 123.163 28.624 122.443 28.6391C119.357 28.7094 116.249 28.6793 113.171 28.4759L112.416 29.1413C111.859 31.2306 111.436 36.3835 110.202 37.6718C108.393 39.5602 106.542 36.3459 107.137 33.6413C109.499 25.0155 110.529 13.906 113.147 5.60909C114.069 2.68608 115.43 0.428529 117.726 0.0744533L117.724 0.0719421ZM114.11 22.5997H123.285C123.406 22.5997 123.62 22.0498 123.511 21.7861C122.317 17.841 122.004 12.3039 120.738 8.5346C119.717 5.49608 117.367 6.02092 116.491 9.04186C115.899 11.0809 114.063 19.5361 113.888 21.535C113.857 21.8815 113.813 22.4666 114.11 22.5997Z" fill="#0F4D8E"/>
<path d="M4.26291 35.5322C3.87551 38.9775 0.553753 39.3692 0.203736 35.0023C0.594531 25.1962 -0.382457 14.3178 0.178249 4.63466C0.278497 2.89191 0.509576 1.4982 1.71424 0.877943C3.35388 0.0366994 11.0084 0.360641 12.9912 0.780007C16.9841 1.62627 19.9491 5.52613 20.2396 11.6634C20.7664 22.7578 16.7734 26.6225 9.79011 26.8787C8.34077 26.9314 6.46495 26.384 5.19062 26.61C4.80832 26.6778 4.51947 26.7933 4.25951 27.2428C4.06071 29.7514 4.52797 33.139 4.25951 35.5297L4.26291 35.5322ZM5.2331 6.58082C4.62312 6.78172 4.32577 7.54009 4.25781 8.40394C4.0811 10.6615 4.05732 17.5095 4.25441 19.7218C4.32917 20.553 4.4634 20.7439 5.01901 20.8518C6.79118 21.1984 12.3354 20.9699 13.8918 19.88C16.2195 18.2503 16.7599 12.6528 15.5076 9.61683C14.5272 7.23875 12.7262 6.70889 10.971 6.52809C9.79011 6.40755 6.23897 6.24684 5.2314 6.57831L5.2331 6.58082Z" fill="#0F4D8E"/>
<path d="M135.393 0.548848C136.544 0.355488 137.398 1.88228 137.631 3.40405C138.219 10.4353 136.583 21.5398 138.362 27.9382C140.406 35.2885 148.745 34.053 149.516 25.2086C150.14 18.0568 149.404 10.1792 149.744 2.94451C150.641 -0.714273 153.545 0.0114566 153.79 3.88118C154.123 9.12702 153.983 17.8584 153.79 23.2373C153.506 31.1199 151.396 37.8423 145.52 38.6384C138.083 39.6479 134.065 35.0675 133.565 23.9781C133.319 18.5188 133.234 9.2576 133.557 3.88118C133.655 2.2464 134.185 0.752253 135.393 0.548848Z" fill="#0F4D8E"/>
<path d="M90.4078 16.0704H100.008C102.123 16.0704 102.106 21.8461 100.348 21.8461H90.6626L90.435 22.263C90.2549 26.6199 92.4059 31.2831 95.3267 32.2825C96.4991 32.6818 97.2569 32.378 98.3018 32.383C99.4521 32.3905 102.247 32.0967 103.16 32.506C104.624 33.164 104.534 37.7745 102.886 38.1537C102.227 38.3069 101.391 38.1185 100.689 38.1713C92.9649 38.7614 87.2474 33.5607 86.5219 21.4368C85.6859 7.47465 92.7695 -0.945321 101.877 0.501116C104.556 0.925504 104.539 5.8675 102.517 6.47018C100.653 7.02766 97.7802 6.23413 95.7617 6.53045C92.4875 7.01008 90.3415 11.3645 90.4078 16.0704Z" fill="#0F4D8E"/>
<path d="M67.0892 0.566547C72.6283 1.08887 79.1155 -0.357566 84.5459 0.501256C87.2797 0.933179 87.5091 6.1514 84.7226 6.53812C82.9045 6.79175 80.2692 6.07356 78.6041 6.53561C78.3254 6.61346 78.1317 6.79677 78.0383 7.2061L78.0077 35.2861C77.5014 39.1859 74.4005 39.1834 73.9417 35.2584L73.8925 7.2061C73.799 6.79426 73.6053 6.61095 73.3267 6.53561C71.6615 6.07356 67.3526 7.22367 66.1224 6.13382C64.6085 4.79286 65.1556 0.624304 67.0875 0.569058L67.0892 0.566547Z" fill="#0F4D8E"/>
<path d="M25.9708 0.561228C26.975 0.48087 27.8517 1.75404 28.0386 3.15527C28.3478 10.6788 27.6648 18.8024 28.0437 26.2506C28.1422 28.1917 28.5127 30.7179 29.8006 31.6898C31.78 33.1839 36.7652 32.0514 39.1882 32.3803C41.5856 32.7068 41.6094 37.8145 39.0182 38.1812C36.6854 38.5126 31.6747 38.4976 29.3452 38.1385C25.8026 37.5935 24.1884 33.0734 23.9658 28.2595C23.6005 20.3618 24.253 11.854 23.9726 3.89105C24.0559 2.34416 24.8834 0.646608 25.9725 0.561228H25.9708Z" fill="#0F4D8E"/>
<path d="M101.962 45.7021V55.998H100.942V49.5945C100.942 49.5568 100.737 48.934 100.687 48.9667C100.099 49.5693 98.7843 52.648 98.1387 52.648C97.3724 52.648 96.4039 49.3584 95.5051 49.2178V55.6213C95.5051 56.1336 94.3157 56.1336 94.3157 55.6213V46.0788C94.3157 45.9131 94.6011 45.7222 94.7455 45.6871C95.9604 45.4083 97.352 50.6291 98.3052 50.4909C99.0205 50.388 100.592 44.9864 101.962 45.6996V45.7021Z" fill="#0F4D8E"/>
<path d="M115.809 45.7023C117.483 46.0513 118.664 48.3741 117.894 50.7924C117.605 51.7015 116.822 52.1484 116.411 52.8842L117.933 55.9956C116.635 56.4451 115.735 54.7375 115.05 53.3538C113.271 49.7503 116.829 52.6733 116.907 49.3158C116.963 46.9101 114.435 46.9955 113.335 47.3169L113.152 55.5837C113.013 56.2115 112.352 55.9654 111.986 55.9956V45.6997C113.179 45.8755 114.656 45.4587 115.809 45.6997V45.7023Z" fill="#0F4D8E"/>
<path d="M110.795 55.9956C108.965 56.7866 109.513 53.9841 108.719 53.4191C108.423 53.2082 105.851 53.1981 105.52 53.3488C104.51 53.8083 104.59 55.6365 104.351 55.8876L103.151 55.9956C103.676 53.5145 104.215 50.7899 104.893 48.4018C105.2 47.322 105.414 45.9308 106.303 45.7173C107.222 45.4938 108.055 45.6018 108.588 46.8273C109.548 49.0346 110.034 53.4794 110.794 55.993L110.795 55.9956ZM105.543 51.709C106.053 51.9325 108.085 52.2765 108.345 51.7441C108.07 45.7726 105.904 45.7851 105.543 51.709Z" fill="#0F4D8E"/>
<path d="M92.4468 47.209H88.7937C88.284 47.209 88.0002 48.3742 88.357 49.1125C88.9347 50.3078 92.5335 49.6599 92.9192 52.1585C93.733 57.4421 89.1981 55.7772 87.1184 55.963C86.7259 55.7721 86.8465 54.9786 86.8397 54.4914H91.1725C91.7162 54.4914 91.9541 52.8793 91.5548 52.2916C90.6882 51.016 86.9689 52.0355 86.8992 48.55C86.8211 44.6552 90.5132 45.8605 92.1681 45.7375C92.5606 45.9283 92.44 46.7219 92.4468 47.209Z" fill="#0F4D8E"/>
<path d="M33.6575 48.4648C33.7339 49.0499 33.5233 51.9805 33.0628 51.9805H26.3513L26.5212 48.4648H33.6575Z" fill="#2AAB66"/>
<path d="M40.6239 52.4824C40.7089 53.3212 40.6358 55.9981 39.8593 55.9981H33.3178C33.2107 55.4481 33.4282 52.4824 33.9124 52.4824H40.6239Z" fill="#2AAB66"/>
<path d="M48.0999 55.9981L48.4397 52.4824H55.1512L55.3873 52.8993C55.4213 53.4492 55.2327 55.9981 54.8113 55.9981H48.0999Z" fill="#2AAB66"/>
<path d="M41.4734 44.4468L41.1336 47.9624H34.1672L34.417 44.9415C34.4782 44.8285 35.3566 44.4468 35.4416 44.4468H41.4734Z" fill="#2AAB66"/>
<path d="M78.1741 48.4648L77.8343 51.9805H70.8679L71.0684 48.8892L71.2927 48.4648H78.1741Z" fill="#2AAB66"/>
<path d="M70.1885 52.4824C70.2905 53.1378 70.1766 55.9981 69.5938 55.9981H63.1372C62.5765 55.9981 63.3751 53.0801 63.2222 52.4824H70.1885Z" fill="#2AAB66"/>
<path d="M63.9016 47.9624L64.2227 44.8486C64.2567 44.7783 64.9585 44.4468 65.006 44.4468H70.9529C71.4134 44.4468 71.1194 47.5631 70.783 47.9624H63.9016Z" fill="#2AAB66"/>
<path d="M48.4397 48.4648L48.0999 51.9805H41.1335L41.4734 48.4648H48.4397Z" fill="#2AAB66"/>
<path d="M63.2219 48.4648L63.052 51.9805H55.9158L56.2556 48.4648H63.2219Z" fill="#2AAB66"/>
<path d="M85.1404 52.4824C85.2406 53.3212 84.9042 55.9981 84.2059 55.9981H77.8342L78.1741 52.4824H85.1404Z" fill="#2AAB66"/>
<path d="M56.0857 47.9624H48.9495C48.9885 46.5763 49.1822 44.4468 50.3937 44.4468H56.1707C56.7501 44.4468 55.8682 47.3497 56.0857 47.9624Z" fill="#2AAB66"/>
<path d="M26.3514 47.9624H19.47C19.0979 47.4577 19.4785 45.3659 19.803 44.939C19.8761 44.8435 20.4402 44.4468 20.4894 44.4468H26.4363C26.997 44.4468 26.1984 47.3648 26.3514 47.9624Z" fill="#2AAB66"/>
<path d="M130.761 55.9983C128.49 55.5237 128.073 52.4877 128.298 49.5948C128.627 45.3183 131.63 45.6548 133.881 45.7376L134.076 47.2092H131.103C131.054 47.2092 130.369 47.8244 130.253 47.9625C128.813 49.6952 129.492 54.4916 131.103 54.4916H133.822L134.066 54.8984L133.907 55.9983C132.923 55.8552 131.715 56.1967 130.763 55.9983H130.761Z" fill="#0F4D8E"/>
<path d="M148.978 50.3985C150.011 49.1278 149.795 44.8688 151.914 45.7051C151.27 47.0787 150.84 49.5773 150.191 50.8153C149.904 51.3627 149.353 51.5762 149.155 52.2969C148.864 53.3516 149.122 54.5067 149.002 55.5865L148.867 55.8879L147.741 55.7623C147.503 54.7001 147.863 53.3039 147.542 52.2919C147.333 51.6314 146.913 51.7143 146.64 51.2949C145.94 50.2277 145.474 47.3424 144.783 46.0767C146.862 43.5706 147.071 52.7439 148.978 50.3985Z" fill="#0F4D8E"/>
<path d="M125.24 45.7021L125.216 47.1762C124.765 47.3168 122.521 46.8724 122.521 47.8366V55.998C122.156 55.9678 121.495 56.2139 121.355 55.5861L121.257 47.4449C120.965 46.8272 119.214 47.5454 118.774 47.0959C118.441 46.7568 118.647 45.7021 118.868 45.7021H125.24Z" fill="#0F4D8E"/>
<path d="M140.532 55.998V47.8366C140.532 47.7538 140.307 47.4549 140.362 47.2089H137.813V45.7021H144.185C144.406 45.7021 144.611 46.7568 144.278 47.0959C143.685 47.701 142.261 46.4028 141.75 47.6307C141.415 48.4343 141.731 49.0671 141.729 49.8381C141.723 51.7541 141.741 53.6726 141.699 55.5886C141.56 56.2164 140.899 55.9703 140.533 56.0005L140.532 55.998Z" fill="#0F4D8E"/>
<path d="M136.623 45.7021V56.2491L135.545 56.2089L135.264 55.8724V45.7021H136.623Z" fill="#0F4D8E"/>
</g>
<defs>
<clipPath id="clip0_616_889">
<rect width="153.99" height="56.2491" fill="white"/>
</clipPath>
</defs>
</svg>
